<svg xmlns="http://www.w3.org/2000/svg" xmlns:xlink="http://www.w3.org/1999/xlink" width="1080" zoomAndPan="magnify" viewBox="0 0 810 809.999993" height="1080" preserveAspectRatio="xMidYMid meet" version="1.0"><defs><clipPath id="3c2f0383ce"><path d="M 147.453125 143.171875 L 662.703125 143.171875 L 662.703125 627.671875 L 147.453125 627.671875 Z M 147.453125 143.171875 " clip-rule="nonzero"/></clipPath></defs><g clip-path="url(#3c2f0383ce)"><path fill="#ffffff" d="M 662.53125 385.265625 C 662.53125 446.523438 641.148438 502.785156 605.429688 546.988281 C 603.355469 549.558594 601.234375 552.085938 599.058594 554.570312 C 584.808594 570.894531 568.535156 585.402344 550.625 597.699219 C 547.382812 599.933594 544.082031 602.09375 540.722656 604.167969 C 528.78125 611.597656 516.1875 618.066406 503.042969 623.484375 C 499.777344 624.832031 496.472656 626.113281 493.140625 627.324219 L 493.140625 616.753906 C 496.476562 615.484375 499.777344 614.140625 503.042969 612.726562 C 516.238281 607.039062 528.839844 600.226562 540.722656 592.421875 C 544.085938 590.21875 547.386719 587.933594 550.625 585.570312 C 565.601562 574.664062 579.304688 562.121094 591.476562 548.203125 C 593.652344 545.71875 595.777344 543.191406 597.84375 540.625 C 632.109375 498.132812 652.628906 444.101562 652.628906 385.265625 C 652.628906 302.929688 612.449219 229.980469 550.625 184.957031 C 547.386719 182.59375 544.085938 180.3125 540.722656 178.109375 C 528.839844 170.304688 516.238281 163.492188 503.042969 157.800781 L 503.042969 474 L 493.140625 465.695312 L 316.839844 317.761719 L 316.839844 627.324219 C 313.511719 626.113281 310.203125 624.832031 306.9375 623.484375 C 293.796875 618.066406 281.203125 611.597656 269.257812 604.167969 C 265.902344 602.09375 262.601562 599.933594 259.355469 597.699219 C 191.769531 551.28125 147.453125 473.449219 147.453125 385.265625 C 147.453125 324.003906 168.835938 267.746094 204.550781 223.542969 C 206.625 220.972656 208.746094 218.445312 210.921875 215.960938 C 225.171875 199.636719 241.445312 185.128906 259.355469 172.832031 C 262.601562 170.59375 265.902344 168.4375 269.257812 166.363281 C 281.203125 158.933594 293.796875 152.464844 306.9375 147.046875 C 310.203125 145.699219 313.511719 144.417969 316.839844 143.207031 L 316.839844 153.777344 C 313.503906 155.046875 310.203125 156.386719 306.9375 157.800781 C 293.738281 163.492188 281.140625 170.304688 269.257812 178.109375 C 265.894531 180.3125 262.59375 182.59375 259.355469 184.957031 C 244.378906 195.867188 230.671875 208.410156 218.503906 222.324219 C 216.328125 224.8125 214.207031 227.335938 212.140625 229.90625 C 177.871094 272.394531 157.351562 326.429688 157.351562 385.265625 C 157.351562 467.597656 197.53125 540.550781 259.355469 585.570312 C 262.59375 587.933594 265.894531 590.21875 269.257812 592.421875 C 281.140625 600.226562 293.738281 607.039062 306.9375 612.726562 L 306.9375 296.53125 L 316.839844 304.835938 L 493.140625 452.769531 L 493.140625 143.207031 C 496.472656 144.417969 499.777344 145.699219 503.042969 147.046875 C 516.1875 152.464844 528.78125 158.933594 540.722656 166.363281 C 544.082031 168.4375 547.382812 170.59375 550.625 172.832031 C 618.210938 219.25 662.53125 297.078125 662.53125 385.265625 " fill-opacity="1" fill-rule="nonzero"/></g></svg>