<svg width="63" height="63" viewBox="0 0 63 63" fill="none" xmlns="http://www.w3.org/2000/svg">
<path d="M63 31.4916C63 30.0175 61.7936 28.8115 60.3191 28.8115C59.3306 28.8115 46.2279 29.3475 37.733 30.1516C45.8928 27.6389 58.1242 23.1497 59.0457 22.7644C60.4197 22.1949 61.0564 20.6371 60.4867 19.2635C59.917 17.8899 58.3588 17.2534 56.9848 17.8229C56.1303 18.1747 45.7253 22.9989 38.2189 26.8851C44.6864 21.4244 53.1144 13.6687 53.7846 13.0154C54.8234 11.9769 54.8234 10.2683 53.7846 9.22973C52.7457 8.19117 51.0367 8.19117 49.9979 9.22973C49.2941 9.93326 40.4641 19.5148 35.0186 26.0978C39.0064 18.56 44.5189 6.66684 44.9043 5.74555C45.4739 4.37198 44.8205 2.81415 43.4465 2.24462C42.0726 1.67509 40.5144 2.32837 39.9447 3.70194C39.5928 4.57299 35.538 15.5951 32.9912 23.6857C33.6949 15.2265 34.1809 3.61819 34.1809 2.68014C34.1809 1.20606 32.9745 0 31.5 0C30.0255 0 28.8191 1.20606 28.8191 2.68014C28.8191 3.65169 29.3386 16.1478 30.1093 24.6405C27.5793 16.4996 23.2061 4.58974 22.8207 3.68519C22.2511 2.31162 20.6928 1.67509 19.3189 2.24462C17.9449 2.81415 17.3082 4.37198 17.8779 5.74555C18.2465 6.63334 23.4407 17.8229 27.3949 25.3776C21.9327 18.8447 13.6891 9.89976 13.0189 9.22973C11.9801 8.19117 10.271 8.19117 9.23218 9.22973C8.19335 10.2683 8.19335 11.9769 9.23218 13.0154C9.90239 13.6855 18.6487 21.7426 25.1497 27.2034C17.5931 23.2669 6.66862 18.2082 5.78058 17.8564C4.40665 17.2869 2.8484 17.9402 2.27872 19.3137C1.70904 20.6873 2.3625 22.2451 3.73644 22.8147C4.64122 23.1999 16.7721 27.6389 24.9319 30.1516C16.437 29.3643 3.65266 28.845 2.68085 28.845C1.20638 28.845 0 30.051 0 31.5251C0 32.9992 1.20638 34.2053 2.68085 34.2053C3.61915 34.2053 15.1301 33.7362 23.558 33.016C15.4819 35.5788 4.60771 39.5823 3.75319 39.9341C2.37926 40.5036 1.74255 42.0614 2.31223 43.435C2.88192 44.8086 4.44016 45.4451 5.8141 44.8756C6.73564 44.4903 18.6319 38.9793 26.1718 34.9758C19.6037 40.4031 9.95266 49.2978 9.24894 50.0013C8.21011 51.0399 8.21011 52.7485 9.24894 53.787C10.2878 54.8256 11.9968 54.8256 13.0356 53.787C13.6891 53.1337 21.5473 44.6076 27.0096 38.125C23.1223 45.6461 18.2801 56.0986 17.9282 56.9529C17.3585 58.3265 18.012 59.8843 19.3859 60.4539C20.7598 61.0234 22.3181 60.3701 22.8878 58.9965C23.2564 58.092 27.663 46.0816 30.1763 37.9407C29.3888 46.4334 28.8527 59.3316 28.8527 60.3199C28.8527 61.7939 30.059 63 31.5335 63C33.008 63 34.2144 61.7939 34.2144 60.3199C34.2144 59.3651 33.7117 47.3212 32.9745 38.8452C35.538 46.9527 39.6431 58.1087 39.9949 58.9798C40.5646 60.3534 42.1229 60.9899 43.4968 60.4204C44.8707 59.8508 45.5074 58.293 44.9378 56.9194C44.5691 56.0316 39.4588 45.0096 35.5045 37.4717C40.9668 44.0213 49.3277 53.0835 49.9979 53.7703C51.0367 54.8088 52.7457 54.8088 53.7846 53.7703C54.8234 52.7317 54.8234 51.0231 53.7846 49.9846C53.0976 49.2978 43.7649 40.7046 37.1968 35.2438C44.7535 39.197 56.1136 44.4568 57.0016 44.8253C58.3755 45.3948 59.9338 44.7416 60.5035 43.368C61.0731 41.9944 60.4197 40.4366 59.0457 39.8671C58.1745 39.5153 47.2668 35.5118 39.1739 32.949C47.6354 33.686 59.3641 34.155 60.3024 34.155C61.8104 34.1718 63 32.9657 63 31.4916Z" fill="#E24523"/>
</svg>
